PathFileType	4	(X/Y/Z)	C:\Users\WrightLab\Desktop\Jo\P3_25.trc
DataRate	CameraRate	NumFrames	NumMarkers	Units	OrigDataRate	OrigDataStartFrame	OrigNumFrames
100.00	100.00	       16	19	mm	100.00	1	       575
Frame#	Time	Headset_Front			Headset_Back			Headset_Left			Headset_Right			Left_Shoulder			Right_Shoulder			Sternum			C7			Left Elbow			Right Elbow			Left Wrist			Right Wrist			Left ASIS			Right ASIS			S2			Left Knee			Right Knee			Left Ankle			Right Ankle			
		X1	Y1	Z1	X2	Y2	Z2	X3	Y3	Z3	X4	Y4	Z4	X5	Y5	Z5	X6	Y6	Z6	X7	Y7	Z7	X8	Y8	Z8	X9	Y9	Z9	X10	Y10	Z10	X11	Y11	Z11	X12	Y12	Z12	X13	Y13	Z13	X14	Y14	Z14	X15	Y15	Z15	X16	Y16	Z16	X17	Y17	Z17	X18	Y18	Z18	X19	Y19	Z19	

1	0.000													-336.03732	1271.49744	-1406.74731	-687.47858	1267.63574	-1501.72485	-532.90228	1139.51697	-1347.89136				-288.32080	934.39026	-1389.98572				-352.54739	757.82922	-1300.21985	-791.06317	730.05865	-1479.46533										-704.54999	409.65933	-1352.73682	-720.20844	76.08324	-1313.74207							
2	0.010													-339.89890	1272.75549	-1403.69495	-692.14923	1266.55066	-1491.95044	-537.26807	1138.78650	-1344.51563				-292.48514	934.67029	-1383.33789				-356.57324	758.34845	-1290.56689	-795.77118	730.77228	-1470.34998										-707.84015	407.84610	-1352.52075	-720.30396	74.40620	-1312.97400							
3	0.020													-343.59464	1272.05786	-1395.12097	-696.22614	1267.54480	-1486.83569	-540.82208	1139.46021	-1333.60315				-296.89548	933.10022	-1373.28394				-361.54172	757.83746	-1281.48718	-797.59351	729.14746	-1467.25415										-710.74023	409.19037	-1340.59253	-721.74493	74.55592	-1306.68860							
4	0.030													-347.73157	1272.01001	-1387.45435	-699.86188	1268.43579	-1481.30066	-545.64026	1139.51636	-1324.78711				-301.30353	933.85040	-1366.84570				-366.60681	758.75940	-1272.80066	-801.70679	728.76050	-1456.42981										-713.39447	411.80432	-1330.73669	-722.43994	73.93964	-1305.75134							
5	0.040													-352.17499	1272.62244	-1380.55688	-703.48828	1269.45679	-1475.36255	-550.63446	1140.22412	-1320.74890				-305.81274	933.35626	-1357.32849				-371.13416	758.90295	-1263.71008	-807.20892	728.34271	-1453.88013										-714.78577	414.82709	-1315.86841	-723.17889	73.47894	-1305.05359							
6	0.050													-356.68604	1272.88696	-1371.71887	-707.73663	1268.99915	-1464.84900	-554.38635	1141.50403	-1311.24768				-310.26807	933.94330	-1350.20313				-374.60095	759.37732	-1257.28601	-811.00488	729.99677	-1440.96570										-716.70441	415.46533	-1307.86890	-724.06036	75.12808	-1300.70422							
7	0.060													-359.78632	1272.54260	-1361.65845	-711.95020	1270.26270	-1457.40588	-558.52997	1145.08862	-1296.86511				-314.71658	935.11420	-1343.48328				-380.24344	759.84796	-1248.23669	-814.53009	733.31097	-1429.08459										-719.28748	415.60693	-1300.57422	-724.60718	74.06644	-1298.87048							
8	0.070													-363.85599	1274.43665	-1356.15527	-716.17700	1272.28174	-1451.04590	-563.67853	1146.76648	-1289.62354				-319.19812	934.76886	-1333.56995				-385.53046	761.79932	-1240.29236	-818.94128	734.15002	-1416.81567										-721.17615	413.86270	-1293.87439	-724.66071	73.19955	-1298.16443							
9	0.080													-367.94882	1275.92578	-1348.99414	-719.74237	1274.57715	-1445.45862	-567.97919	1148.71594	-1282.23145				-324.12329	936.43671	-1326.43140				-390.42172	762.68927	-1232.82397	-823.81366	734.59589	-1414.59741										-723.52722	413.48291	-1289.10999	-725.06183	72.56251	-1296.50146							
10	0.090													-371.99417	1277.36060	-1341.07324	-723.69733	1276.08154	-1437.37354	-573.02899	1150.85352	-1274.80981				-328.81500	938.28308	-1319.84363				-394.95105	764.17578	-1225.67310	-826.73444	736.93048	-1403.22620										-726.42383	411.53452	-1287.82336	-725.03119	72.08037	-1296.22168							
11	0.100													-376.46823	1279.50684	-1334.65369	-727.43652	1278.32300	-1430.88342	-577.80701	1152.67346	-1266.91248				-333.20123	940.44086	-1313.37610				-400.39297	765.87238	-1217.71729	-829.82813	740.49597	-1390.88306										-729.21088	410.11746	-1285.16492	-725.70294	71.43618	-1293.26929							
12	0.110													-380.72775	1280.79431	-1325.95313	-731.60712	1280.57593	-1423.74365	-581.77350	1155.12646	-1259.08167				-337.71722	942.14404	-1305.47717				-404.49994	767.55804	-1208.94250	-832.48407	743.69757	-1375.96265										-732.60693	410.04236	-1281.91394	-725.91473	70.77651	-1293.98828							
13	0.120													-384.92523	1282.12671	-1317.04138	-735.39478	1282.88684	-1417.13013	-586.43140	1157.37341	-1252.51294				-342.53827	943.38568	-1296.77844				-409.64490	769.30811	-1202.60669	-836.30847	746.20654	-1365.71655										-734.54187	409.50229	-1274.21362	-725.95935	69.31237	-1295.22217							
14	0.130													-388.95493	1283.62988	-1308.88843	-739.53625	1285.18738	-1409.81909	-591.11469	1160.25366	-1245.07373				-347.22290	945.27881	-1289.02515				-414.21368	771.71710	-1195.04297	-840.40485	749.21100	-1355.17041										-736.22491	410.05612	-1269.62927	-727.08832	70.41351	-1292.48474							
15	0.140													-392.87674	1285.20776	-1301.33716	-743.68878	1287.40869	-1402.76758	-594.74304	1162.08459	-1237.13379				-351.43970	947.30243	-1281.61426				-419.21954	772.94885	-1186.38403	-844.49390	751.73785	-1344.97888										-737.86743	408.57764	-1268.63062	-728.41034	71.54079	-1287.86646							
16	0.150													-396.43518	1287.66772	-1296.41382	-747.21906	1289.59741	-1396.64160	-599.00928	1164.24548	-1230.51843				-356.13226	949.43561	-1274.64087				-423.95676	775.20087	-1179.68689	-848.72711	754.85272	-1335.05420										-742.02191	407.71689	-1263.02637	-728.83728	70.90325	-1289.52429							
